# xmcd CD database file
#
# Track frame offsets:
#	150
#	34446
#	71001
#	113281
#	139076
#	181711
#	221356
#
# Disc length: 3317 seconds
#
# Revision: 1
# Processed by: cddbd v1.5.2PL0 Copyright (c) Steve Scherf et al.
# Submitted via: CDex 1.70beta2
#
DISCID=5b0cf307
DTITLE=Steve Trottier - Pure Nature
DYEAR=2014
DGENRE=New Age
TTITLE0=Anshu Seven - Aumitofo       
TTITLE1=Anshu Seven - Ganesha
TTITLE2=Anshu Seven - Surya
TTITLE3=Anshu Seven - Amen
TTITLE4=Anshu Seven - Soham
TTITLE5=Anshu Seven - Mata Meera
TTITLE6=Anshu Seven - Here and Now
EXTD=YEAR: 2014
EXTT0=
EXTT1=
EXTT2=
EXTT3=
EXTT4=
EXTT5=
EXTT6=
PLAYORDER=
